<svg viewBox="0 0 500 137" xmlns="http://www.w3.org/2000/svg"><path d="M38.135 1.548c-6.4 4.6-7.4 16.8-2.8 33.9 1.4 5.4 2.5 10.1 2.2 10.3-.2.2-4.4 1.5-9.5 2.8-22.4 6-31.9 15.2-26.6 25.6 3.1 5.9 16.4 12.8 30.8 16 3.1.6 5.7 1.3 5.7 1.3 0 .1-1.2 4.6-2.6 10.1-2.9 11.3-3.6 24.4-1.5 28.5 2.9 5.5 5.2 7 10.5 7 7.2 0 14.1-3.8 24.7-13.8l8.9-8.4 8.9 8.5c10.5 9.9 17.2 13.7 24.6 13.7 5.6 0 8.4-1.9 10.4-7.3 1.9-4.9 1.3-16.8-1.4-27.3-1.4-5.4-2.5-10.1-2.5-10.5 0-.3 3.3-1.4 7.3-2.4 9.2-2.2 19.4-6.4 24.1-10 14.4-11 4.2-24.6-23.6-31.5l-8.5-2.2 2.4-7.6c2.6-8.1 4.1-22.3 2.9-28.5-.4-2-2-4.9-3.5-6.6-6.3-6.7-18.3-2.6-32.8 11.3l-8.5 8.1-7.7-7.5c-10-9.6-17.6-14.2-24.4-14.7-3.7-.3-5.8 0-7.5 1.2zm14.7 5.1c2.9 1.5 9.2 6.4 13.9 10.9l8.6 8.2-6.2 8.5c-6.9 9.5-4.8 8.4-21.3 10.3l-5.5.7-2.3-7.4c-1.5-4.8-2.5-10.9-2.8-17.8-.5-9.7-.3-10.7 1.7-13.3 2.8-3.5 6.9-3.6 13.9-.1zm63.7-.5c2.9 3.2 2.7 18.6-.5 30.3l-2.4 8.8-6.1-.6c-15-1.6-14-1.1-20.1-9.2-3.1-4.1-5.8-8-6.1-8.7-.7-1.8 14.2-15.8 20.8-19.6 6.4-3.7 11.6-4.1 14.4-1zm-34.1 29.4c2.2 3.1 4.2 6 4.3 6.5.2.6-3.3 1-8.7 1-5 0-9.1-.4-9.1-.9 0-1.1 8.1-12.1 8.9-12.1.3 0 2.4 2.5 4.6 5.5zm-24.9 15.7c-1.4 2.4-3.6 6.2-4.9 8.6l-2.4 4.3-3.2-7.2c-1.8-3.9-3-7.3-2.8-7.6.4-.3 9-1.6 14.5-2.2.8-.1.4 1.4-1.2 4.1zm37.2 2.5c2.2 3.8 4.9 8.7 6.1 11.1l2.2 4.3-3.2 5.7c-1.8 3.1-4.7 8.1-6.6 10.9l-3.3 5.3h-11.8c-10.1 0-12.1-.3-13.4-1.8-2.1-2.3-11.8-19.4-11.8-20.7 0-.5 2.7-5.6 6-11.3l6-10.2h25.8l4 6.7zm12.4-5.2l4.7.6-3.1 7.2c-1.7 4-3.1 7.3-3.2 7.4-.2.2-8.7-14.1-9.5-16-.2-.5 1.2-.6 3-.3 1.9.3 5.5.8 8.1 1.1zm-63.5 10c2 4.4 3.6 8.9 3.6 10 0 1.1-1.8 5.9-3.9 10.6l-3.8 8.6-4-.9c-13-2.8-25-8.1-29-12.8-5-6-2.5-11 8.4-16.5 7-3.5 20.1-7.6 23.3-7.2 1.2.1 3 2.9 5.4 8.2zm83.9-5.9c15.1 4.3 24.4 10.4 24.4 15.9 0 6.6-12 13.7-30.2 17.9l-5.6 1.3-4.1-9.7-4.2-9.6 3.2-6.9c1.7-3.8 3.5-7.9 4-9.2 1.1-2.9 1.7-2.9 12.5.3zm-72.1 29.6c4.9 8.4 4.8 8.6-5.5 7-4.3-.6-5.4-1.1-5.2-2.4.5-2.8 5.3-13.1 5.8-12.5.3.3 2.5 3.8 4.9 7.9zm55.7 6c-1.1 1-15.6 2.2-15 1.2.3-.5 2.5-4.2 4.9-8.3l4.3-7.5 3.2 7c1.8 3.8 3 7.2 2.6 7.6zm-55.4 5.6l7 .7 6.2 8.4 6.2 8.4-6.4 6.4c-15.5 15.8-27.2 20-30.8 11.2-1.8-4.2-.8-18.8 2-28.7l2.2-8.2 3.3.6c1.8.3 6.5.9 10.3 1.2zm60.1 6.3c1.9 5.8 2.4 9.7 2.5 18.2.1 10.8.1 10.9-2.8 13.4-3.2 2.7-5.1 2.6-12.1-.7-4.6-2.2-14.7-10.6-19.5-16.2l-3.2-3.8 6.1-8.2 6-8.3 9.3-1.1c5.1-.6 9.7-1 10.3-.9.5.1 2 3.5 3.4 7.6zm-29.5-3.9c-1.6 2.9-7.9 10.8-8.5 10.8-.7 0-8.9-10.5-8.9-11.5 0-.3 4.1-.5 9.1-.5 6.9 0 8.9.3 8.3 1.2z"/><path d="M72.335 62.448c-8.2 7 2.3 19.3 10.8 12.6 6.4-5 2.2-15-6.2-15-1 0-3.1 1.1-4.6 2.4zm123.587-7.608c-7.5 4-10.2 8.6-9.8 16.8.4 7.3 3.1 11.6 9.1 14.7 8.8 4.5 20.1 1.7 25.3-6.2 7.8-11.8.7-26.2-13.7-27.7-4.6-.4-6.2-.1-10.9 2.4zm17 3c7.4 7.1 7.8 18.9.9 25.8-2.5 2.5-3.7 3-7.8 3-6.1 0-9.7-2.4-12.8-8.5-2.7-5.2-2.9-10.4-.6-16.1 2-5.1 6.3-7.9 12.1-7.9 3.6 0 4.9.6 8.2 3.7zm28.7-4.2c-9.8 3.4-14.5 14.9-10.3 24.8 2.7 6.6 12 11.6 18.9 10.2 10.8-2.2 10.7-2.1 10.7-7.5 0-3.9.4-5.2 2.2-6.4 2.1-1.5 1.8-1.6-5.7-1.5-5.1.1-6.9.4-5 .8 2.9.6 3 .9 3.3 6.3.3 5.6.3 5.6-2.8 6.3-12.7 2.8-22-11.2-16.1-24.1 2.5-5.4 6.4-8.4 11.2-8.4 5.3 0 8.5 1.7 10.4 5.6.9 1.9 1.8 3.4 2 3.4.3 0 .5-1.9.5-4.3v-4.4l-6.4-1.1c-7.7-1.5-8.1-1.5-12.9.3zm36.9 10.7c-6.6 19.4-7.5 21.5-9.9 22.6-1.8.9-.9 1.1 4.8 1 3.9 0 6.1-.2 5-.5-3.6-.9-3.9-2-2-8.3l1.8-6h5.3c5.3 0 5.4.1 7 3.7.8 2.1 1.8 5 2.1 6.5.5 2.4.1 2.8-2.8 3.7-2.9.8-2.1.9 5.1 1 7.8 0 8.3-.1 6-1.4-2-1.1-3.6-4.5-8.1-17.2-5-14-5.9-15.8-8-16.1-2.2-.2-2.7.6-6.3 11zm6.8-1.9c3.2 7.7 3.1 7.7-1.3 7.7-2.3 0-4.1-.4-4.1-.8 0-1.3 3.1-10.2 3.6-10.2.2 0 1 1.5 1.8 3.3zm20.6-8c2.5 1.3 2.5 1.3 2.5 16.2 0 14.9 0 14.9-2.5 16.2-2.2 1.1-1.5 1.3 6 1.2 7-.1 7.9-.2 5.3-1l-3.3-1v-13.9h3c2.5 0 3.6 1 7.9 7.4 3.6 5.3 5.9 7.7 8.2 8.5 3.5 1.2 5.4.5 2.7-1-.9-.5-3.8-4.3-6.3-8.4l-4.7-7.4 2.8-2.4c4.1-3.6 3.9-9-.4-12.8-3.1-2.8-3.6-2.9-13.5-2.9-8.9 0-9.9.2-7.7 1.3zm17.2 2.7c2.6 2.7 3 3.6 2.5 6.7-.8 4.8-2.5 6.3-7.6 7l-4.1.6v-17.3h3.1c2.1 0 4 1 6.1 3zm18.6-2.8c2.1 1.1 2.2 1.5 2.2 15.9 0 14.1-.1 14.9-2.2 16.3-2.1 1.5-1.9 1.6 4.7 1.6 6.9-.1 7-.1 3.8-1.5l-3.3-1.4v-13.1c0-7.1.2-13 .3-13 .2 0 6.2 6.5 13.3 14.5 7.1 7.9 13.5 14.5 14.2 14.5.9 0 1.2-3.9 1.2-16.3 0-16 .1-16.4 2.3-17.5 1.8-.9.9-1.1-4.8-1-3.8 0-6 .3-4.7.5 3.4.7 4.3 4.3 4 15.6l-.3 10.1-11.9-13.2-12-13.2-4.5.1c-4.1 0-4.3.2-2.3 1.1zm43.5-.1c1.5.9 1.7 2.8 1.7 16.4 0 13.6-.2 15.5-1.7 16.4-1.4.8-.2 1 4.7 1.1 6.1 0 6.3-.1 4.2-1.6-2.1-1.4-2.2-2.2-2.2-15.9s.1-14.5 2.2-15.9c2.1-1.5 1.9-1.6-4.2-1.6-4.9.1-6.1.3-4.7 1.1zm17.8 3.1c0 3.5.2 3.9.9 2.1.5-1.2 1.8-2.6 2.9-3.2 1.9-1.1 17.1-1.6 17.1-.6 0 .2-5.2 7.1-11.5 15.2-6.3 8.2-11.5 15.4-11.5 16 0 1 3.8 1.3 15.5 1.3h15.5l-.1-5.3c-.1-4.7-.2-4.9-1-2.2-.5 1.6-1.6 3.6-2.6 4.2-1.9 1.5-18.9 1.8-19.7.4-.3-.4 4.6-7.5 10.9-15.6 6.3-8.2 11.5-15.2 11.5-15.7 0-.4-6.3-.8-14-.8h-14l.1 4.2zm36.2-2.6l2.7 1.5v14.3c0 15.2-.2 16-5 16.9-1.4.2 3.9.5 11.6.6l14.1.1.7-4.1c.8-5.2.3-5.9-1.4-1.9-1.4 3.4-3.7 4.3-10.1 3.8l-4.4-.3-.3-7.3-.3-7.2h5c4.5 0 5.2.3 6.5 2.7 1.5 2.8 1.5 2.7 1.6-3.2 0-5.7-.1-5.8-1.6-3.7-1.2 1.8-2.5 2.2-6.5 2.2h-4.9v-14h4.6c5.5 0 8.4 1.4 8.4 4 0 1.1.3 2 .8 2 .4 0 .6-1.8.4-4l-.4-4h-12.2c-11.3.1-11.9.2-9.3 1.6zm29.7-.3c2.5 1.3 2.5 1.3 2.5 16.2 0 14.9 0 14.9-2.5 16.2-2.2 1.1-1.5 1.3 6 1.2 7-.1 7.9-.2 5.3-1l-3.3-1v-13.9h3c2.5 0 3.6 1 7.9 7.4 3.6 5.3 5.9 7.7 8.2 8.5 3.5 1.2 5.4.5 2.7-1-.9-.5-3.8-4.3-6.3-8.4l-4.7-7.4 2.8-2.4c4.1-3.6 3.9-9-.4-12.8-3.1-2.8-3.6-2.9-13.5-2.9-8.9 0-9.9.2-7.7 1.3zm17.2 2.7c2.6 2.7 3 3.6 2.5 6.7-.8 4.8-2.5 6.3-7.6 7l-4.1.6v-17.3h3.1c2.1 0 4 1 6.1 3z"/></svg>